<?xml version="1.0" encoding="UTF-8" standalone="no"?>
<svg
   xmlns:dc="http://purl.org/dc/elements/1.1/"
   xmlns:cc="http://creativecommons.org/ns#"
   xmlns:rdf="http://www.w3.org/1999/02/22-rdf-syntax-ns#"
   xmlns:svg="http://www.w3.org/2000/svg"
   xmlns="http://www.w3.org/2000/svg"
   xmlns:xlink="http://www.w3.org/1999/xlink"
   xmlns:sodipodi="http://sodipodi.sourceforge.net/DTD/sodipodi-0.dtd"
   xmlns:inkscape="http://www.inkscape.org/namespaces/inkscape"
   inkscape:version="1.0 (4035a4fb49, 2020-05-01)"
   sodipodi:docname="headerhe4rt.svg"
   xml:space="preserve"
   style="enable-background:new 0 0 833 89.8;"
   viewBox="0 0 833 89.8"
   y="0px"
   x="0px"
   id="Layer_1"
   version="1.1"><metadata
   id="metadata1361"><rdf:RDF><cc:Work
       rdf:about=""><dc:format>image/svg+xml</dc:format><dc:type
         rdf:resource="http://purl.org/dc/dcmitype/StillImage" /><dc:title></dc:title></cc:Work></rdf:RDF></metadata><defs
   id="defs1359"><style
     id="style223">.cls-1{fill:#9164cc;}.cls-2{fill:#c29fd8;}</style></defs><sodipodi:namedview
   inkscape:current-layer="Layer_1"
   inkscape:window-maximized="1"
   inkscape:window-y="42"
   inkscape:window-x="1912"
   inkscape:cy="103.69618"
   inkscape:cx="399.67199"
   inkscape:zoom="1.090795"
   showgrid="false"
   id="namedview1357"
   inkscape:window-height="837"
   inkscape:window-width="1440"
   inkscape:pageshadow="2"
   inkscape:pageopacity="0"
   guidetolerance="10"
   gridtolerance="10"
   objecttolerance="10"
   borderopacity="1"
   bordercolor="#666666"
   pagecolor="#ffffff" />
<style
   id="style1274"
   type="text/css">
	.st0{fill:#232E35;}
	.st1{fill:#9365C9;}
	.st2{fill:#BCBBBC;}
	.st3{fill:#9468CC;}
	.st4{fill:#B4B3B4;}
	.st5{fill:#FFFFFF;}
</style>
<rect
   id="rect1276"
   height="89.17"
   width="832.18"
   class="st0"
   y="-0.49"
   x="0.15" />
<g
   id="g1340">
	<g
   id="g1304">
		<g
   id="g1286">
			<path
   id="path1278"
   d="M590.16,27.22l0.06,36.17c0,1.92,1.96,3.48,4.36,3.47L632,66.81l0-1.39l-37.43,0.06     c-1.44,0-2.61-0.93-2.61-2.08c0-1.15,1.17-2.09,2.61-2.09l37.43-0.06l-0.06-37.56l-37.43,0.06     C592.1,23.74,590.15,25.31,590.16,27.22z M630.25,59.86l-35.69,0.05c-0.98,0-1.88,0.26-2.61,0.7l-0.05-33.39     c0-1.15,1.17-2.09,2.61-2.09l35.69-0.05L630.25,59.86z"
   class="st1" />
			
				<rect
   id="rect1280"
   height="1.39"
   width="1.74"
   class="st1"
   transform="matrix(1 -1.540770e-03 1.540770e-03 1 -0.0968 0.9725)"
   y="62.64"
   x="630.25" />
			
				<rect
   id="rect1282"
   height="1.39"
   width="33.08"
   class="st1"
   transform="matrix(1 -1.540770e-03 1.540770e-03 1 -0.0969 0.943)"
   y="62.67"
   x="595.43" />
			<path
   id="path1284"
   d="M577.97,29.8l0.05,32.92c0,2.3,2.35,4.17,5.23,4.17c2.88,0,5.22-1.88,5.22-4.18l-0.05-32.92l-5.23-5.84     L577.97,29.8z M583.19,26.34l2.67,2.97l-5.32,0.01L583.19,26.34z M586.72,58.53l0,1.39l-6.96,0.01l0-1.39L586.72,58.53z      M579.76,57.15l-0.04-26.43l2.61,0l0.04,23.65l1.74,0l-0.04-23.65l2.61,0l0.04,26.43l-2.61,0l0-1.39l-1.74,0l0,1.39L579.76,57.15     z M579.77,62.72l0-1.39l6.96-0.01l0,1.39c0,1.53-1.56,2.78-3.48,2.79C581.33,65.5,579.77,64.25,579.77,62.72z"
   class="st1" />
		</g>
		<g
   id="g1290">
			<path
   id="path1288"
   d="M613.77,50.6l-17.21,0.03l-0.01-6.41l13.75-13.47l12.6-0.02l0.02,13.17l4.18-0.01l0.01,6.69l-4.18,0.01     l0.01,3.75l-9.17,0.01L613.77,50.6z M613.75,36.9l-7.18,7.02l7.19-0.01L613.75,36.9z"
   class="st5" />
		</g>
		<g
   id="g1302">
			<path
   id="path1292"
   d="M637.84,38.12c0.1-0.67,0.17-1.28,0.22-1.82l7.27-0.01c-0.02,0.34-0.06,0.72-0.1,1.16     c-0.04,0.44-0.09,0.81-0.13,1.13l0.13,0c0.52-0.72,1.24-1.35,2.17-1.89c0.93-0.54,1.96-0.81,3.08-0.81     c0.99,0,1.82,0.14,2.51,0.43c0.69,0.29,1.25,0.68,1.69,1.16c0.44,0.48,0.75,1.04,0.95,1.67c0.19,0.63,0.29,1.28,0.29,1.95     c0,0.36-0.02,0.74-0.05,1.13c-0.03,0.39-0.08,0.77-0.15,1.13l-1.84,10.64L646.3,54l1.64-9.4c0.04-0.2,0.07-0.41,0.08-0.62     c0.01-0.21,0.02-0.39,0.02-0.52c0-0.45-0.12-0.81-0.37-1.09c-0.25-0.28-0.64-0.42-1.18-0.42c-0.52,0-0.97,0.23-1.36,0.69     c-0.39,0.46-0.67,1.13-0.82,2.01L642.63,54l-7.54,0.01l2.47-14.25C637.65,39.34,637.74,38.79,637.84,38.12z"
   class="st5" />
			<path
   id="path1294"
   d="M666.81,54.51c-1.35,0-2.6-0.16-3.77-0.5c-1.17-0.34-2.19-0.84-3.07-1.51c-0.88-0.67-1.56-1.5-2.06-2.49     c-0.5-0.99-0.74-2.12-0.75-3.4c0-1.48,0.24-2.89,0.73-4.21c0.49-1.33,1.2-2.48,2.13-3.47c0.93-0.99,2.07-1.77,3.43-2.35     c1.36-0.57,2.91-0.86,4.66-0.87c1.37,0,2.65,0.16,3.84,0.5c1.19,0.34,2.22,0.84,3.1,1.51c0.88,0.67,1.57,1.5,2.07,2.49     c0.51,0.99,0.76,2.12,0.76,3.4c0,1.48-0.24,2.89-0.73,4.21c-0.49,1.33-1.21,2.48-2.15,3.47c-0.94,0.99-2.1,1.77-3.48,2.35     C670.16,54.22,668.59,54.5,666.81,54.51z M670.57,44.43c0-0.72-0.23-1.32-0.68-1.82c-0.45-0.49-1.11-0.74-1.99-0.74     c-0.52,0-0.98,0.11-1.4,0.32c-0.42,0.21-0.77,0.5-1.08,0.84c-0.3,0.35-0.53,0.76-0.69,1.23c-0.16,0.47-0.23,0.97-0.23,1.48     c0,0.74,0.23,1.35,0.68,1.83c0.45,0.48,1.1,0.72,1.95,0.72c0.54,0,1.02-0.1,1.45-0.31c0.43-0.2,0.78-0.48,1.08-0.84     c0.29-0.36,0.52-0.77,0.67-1.23C670.49,45.47,670.57,44.97,670.57,44.43z"
   class="st5" />
			<path
   id="path1296"
   d="M688.37,54.47c-1.35,0-2.6-0.16-3.77-0.5c-1.17-0.34-2.19-0.84-3.07-1.51c-0.88-0.67-1.56-1.5-2.06-2.49     c-0.5-0.99-0.74-2.12-0.75-3.4c0-1.48,0.24-2.89,0.73-4.21c0.49-1.33,1.2-2.48,2.13-3.47c0.93-0.99,2.07-1.77,3.43-2.35     c1.36-0.57,2.91-0.86,4.66-0.87c1.37,0,2.65,0.16,3.84,0.5c1.19,0.34,2.22,0.84,3.1,1.51c0.88,0.67,1.57,1.5,2.07,2.49     c0.51,0.99,0.76,2.12,0.76,3.4c0,1.48-0.24,2.89-0.73,4.21c-0.49,1.33-1.21,2.48-2.15,3.47c-0.94,0.99-2.1,1.77-3.48,2.35     C691.72,54.18,690.14,54.47,688.37,54.47z M692.12,44.4c0-0.72-0.23-1.32-0.68-1.82c-0.45-0.49-1.11-0.74-1.99-0.74     c-0.52,0-0.98,0.11-1.4,0.32c-0.42,0.21-0.77,0.5-1.08,0.84c-0.3,0.35-0.53,0.76-0.69,1.23c-0.16,0.47-0.23,0.97-0.23,1.48     c0,0.74,0.23,1.35,0.68,1.83c0.45,0.48,1.1,0.72,1.95,0.72c0.54,0,1.02-0.1,1.45-0.31c0.43-0.2,0.78-0.48,1.08-0.84     c0.29-0.36,0.52-0.77,0.67-1.23C692.05,45.44,692.12,44.94,692.12,44.4z"
   class="st5" />
			<path
   id="path1298"
   d="M714.87,35.78c1.17,0,2.19,0.19,3.08,0.58c0.89,0.39,1.63,0.93,2.24,1.61c0.61,0.68,1.06,1.49,1.37,2.41     c0.3,0.92,0.46,1.91,0.46,2.96c0,1.5-0.24,2.92-0.73,4.26c-0.49,1.34-1.18,2.5-2.07,3.49c-0.89,0.99-1.93,1.78-3.13,2.36     c-1.2,0.59-2.51,0.88-3.92,0.88c-1.15,0-2.18-0.21-3.1-0.64c-0.92-0.42-1.62-0.98-2.09-1.68l-0.07,0l-0.33,1.89l-6.8,0.01     l4.44-25.47l7.54-0.01l-1.6,9.3l0.07,0c0.54-0.58,1.23-1.06,2.07-1.42C713.14,35.96,714,35.78,714.87,35.78z M714.69,44.36     c0-0.72-0.23-1.32-0.69-1.82c-0.46-0.49-1.13-0.74-2-0.74c-0.52,0-0.98,0.11-1.4,0.32c-0.42,0.21-0.77,0.5-1.08,0.84     c-0.3,0.35-0.54,0.76-0.71,1.23c-0.17,0.47-0.25,0.97-0.25,1.48c0,0.74,0.23,1.35,0.69,1.83c0.46,0.48,1.12,0.72,1.97,0.72     c0.54,0,1.02-0.1,1.45-0.31c0.43-0.2,0.79-0.48,1.09-0.84c0.3-0.36,0.53-0.77,0.69-1.23C714.61,45.4,714.69,44.9,714.69,44.36z"
   class="st5" />
			<path
   id="path1300"
   d="M724.86,47.48c0.58,0.58,1.26,1.02,2.02,1.31c0.76,0.29,1.47,0.44,2.12,0.43c0.45,0,0.8-0.06,1.06-0.19     c0.26-0.12,0.39-0.32,0.39-0.59c0-0.27-0.18-0.49-0.52-0.67c-0.35-0.18-0.79-0.35-1.33-0.5c-0.79-0.22-1.49-0.48-2.11-0.77     c-0.62-0.29-1.15-0.64-1.58-1.04c-0.44-0.4-0.78-0.87-1.01-1.41c-0.24-0.54-0.36-1.17-0.36-1.89c0-1.1,0.24-2.07,0.72-2.9     c0.48-0.83,1.12-1.52,1.92-2.06c0.8-0.54,1.69-0.95,2.69-1.22c1-0.27,2-0.41,3.01-0.41c1.39,0,2.73,0.19,4.03,0.58     c1.29,0.39,2.34,0.94,3.15,1.66l-3.87,4.45c-0.38-0.4-0.91-0.74-1.58-1.02c-0.67-0.28-1.34-0.42-1.99-0.42     c-0.45,0-0.81,0.06-1.09,0.19c-0.28,0.12-0.42,0.32-0.42,0.59c0,0.22,0.12,0.4,0.35,0.52c0.24,0.12,0.65,0.26,1.23,0.42     c0.83,0.2,1.59,0.45,2.27,0.75c0.68,0.3,1.27,0.67,1.77,1.09c0.49,0.43,0.88,0.93,1.15,1.51c0.27,0.58,0.41,1.27,0.41,2.05     c0,1.19-0.26,2.2-0.79,3.03c-0.53,0.83-1.2,1.51-2.02,2.02c-0.82,0.52-1.73,0.89-2.73,1.12c-1,0.23-1.98,0.34-2.95,0.34     c-1.28,0-2.63-0.18-4.04-0.53c-1.41-0.36-2.66-0.98-3.74-1.88L724.86,47.48z"
   class="st5" />
		</g>
	</g>
	<g
   id="g1338">
		<g
   id="g1330"
   transform="translate(0.000000,1001.000000) scale(0.100000,-0.100000)">
			<g
   id="g1328">
				<path
   id="path1306"
   d="M7599.94,9608.42c-9.99-1.28-18.29-7.08-22.54-15.78c-1.94-3.94-2.76-7.19-2.92-11.63      c-0.24-6.88,1.62-12.92,5.7-18.39c0.83-1.11,4.95-5.38,11.96-12.38c5.87-5.89,10.78-10.71,10.9-10.71      c0.1,0,15.09,14.94,33.28,33.19l33.07,33.17l-1.77,0.71c-8.5,3.39-18.52,2.41-26.08-2.54c-0.94-0.6-2.11-1.44-2.65-1.87      c-0.52-0.42-8.83-8.64-18.43-18.27l-17.48-17.5l-3.85,3.9c-3.41,3.44-3.95,4.07-4.56,5.34c-1.39,2.84-1.41,5.53-0.05,8.44      c1.28,2.71,4.11,4.77,7.2,5.24c2.46,0.39,5.38-0.43,7.23-2.01l0.79-0.67l6.76,6.8l6.77,6.8l-1.23,1.09      c-3.56,3.2-8.37,5.6-13.33,6.63C7606.8,9608.36,7601.59,9608.64,7599.94,9608.42z"
   class="st2" />
				<path
   id="path1308"
   d="M7714.38,9566.14l0.05-29.7l7.88,0.01l7.88,0.01l0.02,11.59l0.04,11.57l10.92,0.07l10.9,0.06l0.02-11.63      l0.02-11.63l7.88,0.01l7.88,0.01l-0.05,29.7l-0.05,29.7l-7.88-0.01l-7.88-0.01l0.02-10.86l0.02-10.86l-10.96-0.02l-10.96-0.02      l-0.02,10.86l-0.02,10.86l-7.88-0.01l-7.88-0.01L7714.38,9566.14z"
   class="st2" />
				<path
   id="path1310"
   d="M7834.81,9574.93l-12.01-17.82l0.01-5.34l0.01-5.36l12.55-0.02l12.53-0.04l0.06-4.84l0.05-4.86l6.82,0.01      l6.82,0.01l0.03,4.86l0.05,4.84l2.84,0.06l2.83,0.06l-0.01,5.94l-0.01,5.94l-2.83,0.05l-2.85,0.05l-0.08,17.17l-0.06,17.15      l-7.38-0.01l-7.38-0.01L7834.81,9574.93z M7847.93,9566.69l-0.04-8.23l-5.63-0.07c-3.52-0.02-5.61,0.01-5.57,0.13      c0.13,0.4,11.01,16.36,11.14,16.38C7847.9,9574.9,7847.95,9571.21,7847.93,9566.69z"
   class="st2" />
				<path
   id="path1312"
   d="M7669.85,9579.43l-12.86-12.9l-3.37,3.36l-3.37,3.36l-6.68-6.7c-3.67-3.68-6.66-6.78-6.66-6.87      c0-0.12,1.48-1.67,3.27-3.46l3.27-3.26l-13.47-13.52l-13.49-13.53l6.8-6.76l6.78-6.78l23.82,23.87      c13.09,13.13,24.36,24.53,25.01,25.32c6.2,7.45,8.26,17.27,5.55,26.63c-0.37,1.23-1.51,4.13-1.64,4.13      C7682.75,9592.33,7676.92,9586.53,7669.85,9579.43z"
   class="st2" />
				<path
   id="path1314"
   d="M7915.22,9584.42l0.01-5.77l-3.08,0l-3.08,0l0.01-5.86l0.01-5.86l3.08,0l3.08,0l0.01-7.54      c0.01-9.29,0.35-12.17,1.7-15.41c1.7-4.05,5.3-7.07,9.74-8.17c3.65-0.9,8.61-0.85,11.98,0.13c2.73,0.79,5.78,2.28,7.36,3.57      l0.44,0.37l-2.83,4.46c-1.56,2.46-2.91,4.55-2.99,4.63c-0.08,0.1-0.56-0.12-1.08-0.42c-1.52-0.98-2.8-1.37-4.46-1.37      c-2.27,0.02-3.6,0.78-4.41,2.59c-0.31,0.69-0.35,1.56-0.42,9l-0.07,8.21l5.19,0.01l5.21,0.01l-0.01,5.86l-0.01,5.86l-5.19-0.01      l-5.19-0.01l-0.01,5.77l-0.01,5.77l-7.5-0.01l-7.5-0.01L7915.22,9584.42z"
   class="st2" />
				<path
   id="path1316"
   d="M7794.17,9579.6c-6.02-0.78-11.39-4.09-14.6-9c-3.32-5.06-4.52-11.69-3.35-18.57      c1.59-9.36,8-15.17,18.36-16.64c2.44-0.34,8.17-0.28,10.48,0.11c3.94,0.68,7.78,1.86,10.53,3.25c1.27,0.64,1.48,0.81,1.38,1.12      c-0.08,0.21-1.12,2.42-2.33,4.92c-1.45,3-2.28,4.5-2.45,4.44c-0.12-0.06-0.92-0.42-1.77-0.79c-3.52-1.54-6.76-2.14-10.86-2.02      c-2.1,0.07-2.88,0.19-4.15,0.61c-1.75,0.55-3.41,1.65-4.18,2.74c-0.54,0.79-1.1,2.19-1.1,2.77c0,0.35,0.44,0.37,14.13,0.39      l14.13,0.02l0,2.17c-0.01,8.88-2.21,15.12-6.91,19.56c-2.81,2.67-6.18,4.24-10.41,4.87      C7799.09,9579.84,7796.13,9579.87,7794.17,9579.6z M7800.2,9568.15c2.35-0.8,4.35-3.09,4.66-5.34l0.12-0.86l-7.46-0.01      l-7.46-0.01l0.13,0.83c0.44,2.81,2.89,5.19,5.87,5.7C7797.32,9568.65,7799.12,9568.54,7800.2,9568.15z"
   class="st2" />
				<path
   id="path1318"
   d="M7897.86,9578.89c-2.02-0.48-3.69-1.52-5.72-3.57c-1.17-1.17-1.88-1.75-1.9-1.56      c0,0.19-0.12,1.33-0.23,2.54l-0.23,2.21l-7.25,0.05l-7.27,0.03l0.03-20.95l0.03-20.95l7.48,0.01l7.5,0.01l0.04,10.82      c0.06,9.5,0.1,10.94,0.39,11.96c1.03,3.58,3.09,5.66,6.47,6.47c1.27,0.29,4.48,0.31,6.04,0.01c0.63-0.11,1.17-0.17,1.21-0.15      c0.12,0.12,1.98,12.67,1.9,12.75c-0.04,0.06-0.67,0.21-1.4,0.36C7903.26,9579.29,7899.37,9579.26,7897.86,9578.89z"
   class="st2" />
				<path
   id="path1320"
   d="M7978.49,9569.91c0.01-3.59-0.03-6.54-0.09-6.54s-0.83,0.31-1.71,0.67c-5.33,2.18-11.92,0.69-15.76-3.6      c-2.8-3.12-4.04-7.43-3.56-12.23c0.72-6.88,4.73-11.41,10.76-12.15c3.48-0.44,6.75,0.62,9.26,3.03l1.09,1.04l0.14-1.65      l0.14-1.63l2.58,0l2.58,0l-0.03,19.8l-0.03,19.8l-2.69,0l-2.69,0L7978.49,9569.91z M7974.95,9559.98      c0.63-0.15,1.69-0.59,2.35-0.96l1.21-0.67l0.01-5.33c0.01-5.75-0.1-6.63-1.02-8.48c-0.65-1.25-2-2.58-3.34-3.23      c-1.02-0.5-1.27-0.54-3.4-0.54c-2.23,0-2.36,0.01-3.6,0.63c-0.69,0.35-1.58,0.96-1.96,1.38c-2.64,2.92-3.24,8.82-1.29,12.68      c1.07,2.14,2.84,3.7,5.09,4.47C7970.24,9560.38,7973.37,9560.4,7974.95,9559.98z"
   class="st2" />
				<path
   id="path1322"
   d="M8001.41,9565.12c-2.83-0.45-5.19-1.68-7.45-3.95c-1.78-1.77-2.86-3.69-3.55-6.33      c-0.59-2.19-0.59-5.88-0.01-8.23c1.3-5.23,4.8-8.8,9.95-10.13c2.35-0.61,6.08-0.57,8.63,0.11c2.54,0.66,4.8,1.79,6.3,3.18      l1.19,1.12l-1.42,1.55c-0.79,0.86-1.5,1.57-1.56,1.57c-0.08,0-0.54-0.33-1.02-0.73c-3.3-2.73-8.36-3.47-11.97-1.77      c-2.56,1.21-4.72,3.99-5.01,6.47l-0.12,1l10.92,0.02l10.92,0.02l-0.12,1.79c-0.49,7.3-4.17,12.62-9.71,14.04      C8005.87,9565.24,8002.99,9565.37,8001.41,9565.12z M8006.45,9560.34c2.19-0.69,4.18-2.9,4.85-5.45      c0.15-0.54,0.27-1.17,0.27-1.4l0-0.44l-8.09-0.01l-8.11-0.01l0.11,0.85c0.42,3.02,2.66,5.58,5.8,6.58      C8002.51,9560.83,8004.99,9560.78,8006.45,9560.34z"
   class="st2" />
				<path
   id="path1324"
   d="M8058.81,9565.23c-3.5-0.64-6.22-2.39-7.55-4.82c-0.54-1-0.58-1.19-0.57-3.17c0-1.92,0.04-2.21,0.54-3.21      c0.69-1.4,2.33-2.9,4.08-3.72c0.75-0.36,2.87-1.03,4.71-1.51c3.98-1.01,5.48-1.61,6.35-2.49c0.96-1,1.1-2.63,0.29-3.86      c-0.65-1.02-3.19-1.81-5.75-1.82c-2.73,0.01-5.13,0.78-7.17,2.31l-1.17,0.9l-1.57-1.71c-0.98-1.06-1.54-1.83-1.46-2      c0.15-0.4,2.27-1.92,3.46-2.47c3.37-1.59,8.73-2,12.69-0.96c1.63,0.42,3.71,1.58,4.78,2.64c0.54,0.54,1.17,1.46,1.52,2.21      c0.54,1.15,0.61,1.46,0.59,3.02c0,1.35-0.12,2.02-0.45,2.9c-0.91,2.32-3.43,4.13-7.22,5.16c-0.94,0.27-2.63,0.71-3.73,1.01      c-2.83,0.75-4.62,1.67-5.08,2.61c-0.56,1.08-0.31,2.31,0.61,3.23c0.98,0.98,2.42,1.39,4.92,1.37c2.33,0,4.35-0.59,6.12-1.78      c0.63-0.4,1.17-0.75,1.19-0.75c0.15,0,2.78,3.45,2.78,3.62c0,0.54-3.31,2.32-5.43,2.91      C8064.73,9565.31,8060.38,9565.52,8058.81,9565.23z"
   class="st2" />
				<path
   id="path1326"
   d="M8018.67,9564.3c0-0.04,2.64-6.21,5.86-13.68l5.88-13.6l2.75-0.05l2.75-0.03l5.69,13.41      c3.12,7.39,5.75,13.58,5.82,13.77c0.11,0.31-0.1,0.33-2.75,0.32l-2.88,0l-4.19-10.66c-2.3-5.87-4.25-10.6-4.31-10.54      c-0.06,0.08-2.01,4.86-4.34,10.66l-4.21,10.51l-3.04,0C8020.04,9564.4,8018.67,9564.36,8018.67,9564.3z"
   class="st2" />
			</g>
		</g>
		<g
   id="g1336">
			<path
   id="path1332"
   d="M750.47,45.31c0,0.69-0.15,1.23-0.46,1.64c-0.31,0.41-0.73,0.61-1.27,0.61c-0.52,0-0.92-0.19-1.21-0.56     l-0.05,0.48l-0.9,0l-0.01-6.28l0.99,0l0,2.28c0.29-0.34,0.67-0.51,1.16-0.51c0.54,0,0.96,0.2,1.27,0.6     c0.31,0.4,0.46,0.96,0.46,1.68L750.47,45.31z M749.48,45.23c0-0.48-0.09-0.84-0.26-1.08c-0.17-0.24-0.42-0.36-0.74-0.36     c-0.43,0-0.73,0.19-0.91,0.57l0,1.82c0.18,0.38,0.48,0.58,0.92,0.58c0.31,0,0.55-0.12,0.72-0.35c0.17-0.23,0.26-0.58,0.26-1.05     L749.48,45.23z"
   class="st4" />
			<path
   id="path1334"
   d="M752.86,46.05l0.9-3l1.06,0l-1.75,5.1c-0.27,0.75-0.73,1.12-1.37,1.12c-0.14,0-0.3-0.02-0.48-0.07l0-0.77     l0.19,0.01c0.25,0,0.44-0.05,0.57-0.14c0.13-0.09,0.23-0.24,0.3-0.46l0.14-0.38l-1.56-4.4l1.07,0L752.86,46.05z"
   class="st4" />
		</g>
	</g>
</g>
<g
   id="g1348">
	<defs
   id="defs1343">
		<rect
   height="89.17"
   width="832.18"
   y="-0.49"
   x="0.15"
   id="SVGID_1_" />
	</defs>
	<clipPath
   id="SVGID_2_">
		<use
   id="use1345"
   style="overflow:visible;"
   xlink:href="#SVGID_1_" />
	</clipPath>
</g>

<g
   transform="matrix(0.49021934,0,0,0.49021934,-59.904714,-24.852244)"
   id="g1394"><path
     d="m 182.7207,231.05469 -0.16601,0.24414 c 0.0522,0.0112 0.10615,0.0157 0.1582,0.0273 -8.5e-4,-0.0927 0.006,-0.18026 0.008,-0.27148 z"
     id="path233" /><path
     id="path247"
     d="M 262.44,72 A 42.72,42.72 0 0 0 232.11,84.56 L 181.55,135.11 171.44,125 a 14.3,14.3 0 1 1 20.22,-20.22 l 20.23,-20.22 a 42.9,42.9 0 0 0 -60.67,60.66 l 30.33,30.33 99.38,-99.38 A 42.68,42.68 0 0 0 262.44,72 Z"
     class="cls-1" /><path
     id="path249"
     d="M 301.15,96.4 262.44,135.12 252.33,125 232.11,145.22 242.22,155.33 201.78,195.77 222,216 292.77,145.23 a 42.92,42.92 0 0 0 8.38,-48.83 z"
     class="cls-1" /></g></svg>
