<?xml version="1.0" encoding="utf-8"?>
<svg version="1.1" id="Layer_1" xmlns="http://www.w3.org/2000/svg" xmlns:xlink="http://www.w3.org/1999/xlink" x="0px" y="0px"
	 viewBox="0 0 461.31 189.58" style="enable-background:new 0 0 461.31 189.58;" xml:space="preserve">
<style type="text/css">
	.st0{fill:#9365C9;}
	.st1{fill:#BCBBBC;}
	.st2{fill:#9468CC;}
	.st3{fill:#232E35;}
	.st4{fill:#B4B3B4;}
</style>
<g>
	<g>
		<g>
			<path class="st0" d="M34.9,9.96v103.6c0,5.49,5.59,9.96,12.47,9.96h107.2v-3.98H47.37c-4.12,0-7.48-2.68-7.48-5.98
				s3.36-5.98,7.48-5.98h107.2V0L47.37,0C40.49,0,34.9,4.47,34.9,9.96z M149.58,103.6H47.37c-2.8,0-5.39,0.75-7.48,2V9.96
				c0-3.3,3.36-5.98,7.48-5.98h102.21V103.6z"/>
			<rect x="149.58" y="111.57" class="st0" width="4.99" height="3.98"/>
			<rect x="49.86" y="111.57" class="st0" width="94.74" height="3.98"/>
			<path class="st0" d="M0,17.29l0,94.28c0,6.59,6.71,11.95,14.96,11.95s14.96-5.36,14.96-11.95V17.29L14.96,0.56L0,17.29z
				 M14.96,7.41l7.62,8.53H7.34L14.96,7.41z M24.93,99.62v3.98H4.99v-3.98H24.93z M4.99,95.63V19.92h7.48v67.74h4.99V19.92h7.48
				v75.71h-7.48v-3.98h-4.99v3.98H4.99z M4.99,111.57v-3.98h19.94v3.98c0,4.4-4.47,7.97-9.97,7.97S4.99,115.96,4.99,111.57z"/>
		</g>
		<g>
			<path class="st3" d="M102.44,77.02H53.16V58.67L92.6,20.14h36.1v37.72h11.96v19.16H128.7v10.75h-26.26V77.02z M102.44,37.78
				L81.85,57.86h20.58V37.78z"/>
		</g>
		<g>
			<path class="st3" d="M171.43,41.37c0.29-1.93,0.5-3.67,0.63-5.21h20.83c-0.06,0.96-0.16,2.07-0.29,3.33
				c-0.13,1.25-0.26,2.33-0.39,3.23h0.39c1.48-2.06,3.55-3.86,6.22-5.4c2.67-1.54,5.61-2.31,8.82-2.31c2.83,0,5.22,0.42,7.19,1.25
				c1.96,0.84,3.57,1.95,4.82,3.33c1.25,1.38,2.15,2.98,2.7,4.77c0.55,1.8,0.82,3.67,0.82,5.59c0,1.03-0.05,2.11-0.14,3.23
				c-0.1,1.13-0.24,2.2-0.43,3.23l-5.3,30.48h-21.7l4.73-26.91c0.13-0.58,0.21-1.17,0.24-1.78c0.03-0.61,0.05-1.11,0.05-1.5
				c0-1.29-0.35-2.33-1.06-3.13c-0.71-0.8-1.83-1.21-3.38-1.21c-1.48,0-2.78,0.66-3.91,1.98c-1.13,1.32-1.91,3.23-2.36,5.74
				l-4.82,26.81h-21.6l7.14-40.8C170.87,44.88,171.14,43.3,171.43,41.37z"/>
			<path class="st3" d="M254.33,88.44c-3.86,0-7.46-0.48-10.8-1.45c-3.34-0.96-6.27-2.41-8.78-4.34c-2.51-1.93-4.47-4.31-5.88-7.14
				c-1.42-2.83-2.12-6.08-2.12-9.74c0-4.24,0.71-8.26,2.12-12.06c1.41-3.79,3.46-7.1,6.12-9.93c2.67-2.83,5.95-5.06,9.84-6.7
				c3.89-1.64,8.34-2.46,13.36-2.46c3.92,0,7.59,0.48,11,1.45c3.41,0.96,6.37,2.41,8.87,4.34c2.51,1.93,4.48,4.31,5.93,7.14
				c1.45,2.83,2.17,6.08,2.17,9.74c0,4.24-0.71,8.26-2.12,12.06c-1.42,3.79-3.47,7.11-6.17,9.93c-2.7,2.83-6.03,5.06-9.98,6.7
				C263.93,87.62,259.41,88.44,254.33,88.44z M265.13,59.6c0-2.06-0.64-3.79-1.93-5.21c-1.29-1.41-3.18-2.12-5.69-2.12
				c-1.48,0-2.81,0.31-4,0.92c-1.19,0.61-2.22,1.42-3.09,2.41c-0.87,1-1.53,2.17-1.98,3.52c-0.45,1.35-0.67,2.77-0.67,4.24
				c0,2.12,0.64,3.87,1.93,5.26c1.29,1.38,3.15,2.07,5.59,2.07c1.54,0,2.93-0.29,4.15-0.87c1.22-0.58,2.25-1.38,3.09-2.41
				c0.83-1.03,1.48-2.2,1.93-3.52C264.91,62.57,265.13,61.14,265.13,59.6z"/>
			<path class="st3" d="M316.06,88.44c-3.86,0-7.46-0.48-10.8-1.45c-3.34-0.96-6.27-2.41-8.78-4.34c-2.51-1.93-4.47-4.31-5.88-7.14
				c-1.42-2.83-2.12-6.08-2.12-9.74c0-4.24,0.71-8.26,2.12-12.06c1.41-3.79,3.46-7.1,6.12-9.93c2.67-2.83,5.95-5.06,9.84-6.7
				c3.89-1.64,8.34-2.46,13.36-2.46c3.92,0,7.59,0.48,11,1.45c3.41,0.96,6.37,2.41,8.87,4.34c2.51,1.93,4.48,4.31,5.93,7.14
				c1.45,2.83,2.17,6.08,2.17,9.74c0,4.24-0.71,8.26-2.12,12.06c-1.42,3.79-3.47,7.11-6.17,9.93c-2.7,2.83-6.03,5.06-9.98,6.7
				C325.65,87.62,321.14,88.44,316.06,88.44z M326.86,59.6c0-2.06-0.64-3.79-1.93-5.21c-1.29-1.41-3.18-2.12-5.69-2.12
				c-1.48,0-2.81,0.31-4,0.92c-1.19,0.61-2.22,1.42-3.09,2.41c-0.87,1-1.53,2.17-1.98,3.52c-0.45,1.35-0.67,2.77-0.67,4.24
				c0,2.12,0.64,3.87,1.93,5.26c1.29,1.38,3.15,2.07,5.59,2.07c1.54,0,2.93-0.29,4.15-0.87c1.22-0.58,2.25-1.38,3.09-2.41
				c0.83-1.03,1.48-2.2,1.93-3.52C326.63,62.57,326.86,61.14,326.86,59.6z"/>
			<path class="st3" d="M392.06,35c3.34,0,6.28,0.56,8.82,1.69c2.54,1.13,4.68,2.67,6.41,4.63c1.74,1.96,3.04,4.26,3.91,6.9
				c0.87,2.64,1.3,5.47,1.3,8.49c0,4.31-0.71,8.38-2.12,12.2c-1.42,3.83-3.39,7.15-5.93,9.98c-2.54,2.83-5.53,5.08-8.97,6.75
				c-3.44,1.67-7.19,2.51-11.24,2.51c-3.28,0-6.24-0.61-8.87-1.83c-2.64-1.22-4.63-2.83-5.98-4.82h-0.19l-0.96,5.4h-19.48
				l12.83-72.92h21.6l-4.63,26.62h0.19c1.54-1.67,3.52-3.02,5.93-4.05C387.09,35.52,389.55,35,392.06,35z M391.48,59.6
				c0-2.06-0.66-3.79-1.98-5.21c-1.32-1.41-3.23-2.12-5.74-2.12c-1.48,0-2.81,0.31-4,0.92c-1.19,0.61-2.22,1.42-3.09,2.41
				c-0.87,1-1.54,2.17-2.03,3.52s-0.72,2.77-0.72,4.24c0,2.12,0.66,3.87,1.98,5.26c1.32,1.38,3.2,2.07,5.64,2.07
				c1.54,0,2.93-0.29,4.15-0.87c1.22-0.58,2.27-1.38,3.13-2.41c0.87-1.03,1.53-2.2,1.98-3.52C391.25,62.57,391.48,61.14,391.48,59.6
				z"/>
			<path class="st3" d="M420.61,68.57c1.67,1.67,3.6,2.93,5.79,3.76c2.19,0.84,4.21,1.25,6.08,1.25c1.29,0,2.3-0.18,3.04-0.53
				c0.74-0.35,1.11-0.92,1.11-1.69s-0.5-1.41-1.5-1.93c-1-0.51-2.27-1-3.81-1.45c-2.25-0.64-4.26-1.38-6.03-2.22
				c-1.77-0.83-3.28-1.83-4.53-2.99s-2.22-2.51-2.89-4.05s-1.01-3.34-1.01-5.4c0-3.15,0.69-5.92,2.07-8.29
				c1.38-2.38,3.21-4.34,5.5-5.88c2.28-1.54,4.85-2.7,7.72-3.47c2.86-0.77,5.74-1.16,8.63-1.16c3.99,0,7.83,0.56,11.53,1.69
				c3.7,1.12,6.7,2.72,9.02,4.77l-11.09,12.73c-1.09-1.16-2.6-2.14-4.53-2.94c-1.93-0.8-3.83-1.21-5.69-1.21
				c-1.29,0-2.33,0.18-3.13,0.53c-0.8,0.35-1.21,0.92-1.21,1.69c0,0.64,0.34,1.14,1.01,1.5c0.67,0.35,1.85,0.76,3.52,1.21
				c2.38,0.58,4.55,1.3,6.51,2.17c1.96,0.87,3.65,1.91,5.06,3.13c1.41,1.22,2.51,2.67,3.28,4.34c0.77,1.67,1.16,3.63,1.16,5.88
				c0,3.41-0.76,6.3-2.27,8.68c-1.51,2.38-3.44,4.31-5.79,5.79c-2.35,1.48-4.95,2.54-7.81,3.18c-2.86,0.64-5.68,0.96-8.44,0.96
				c-3.67,0-7.52-0.52-11.57-1.54c-4.05-1.03-7.62-2.83-10.71-5.4L420.61,68.57z"/>
		</g>
	</g>
	<g>
		<g transform="translate(0.000000,1001.000000) scale(0.100000,-0.100000)">
			<g>
				<path class="st1" d="M2038.43,8389.37c-28.63-3.63-52.41-20.21-64.63-45.09c-5.56-11.29-7.93-20.59-8.42-33.31
					c-0.72-19.71,4.57-37,16.24-52.69c2.37-3.19,14.15-15.42,34.19-35.51c16.79-16.9,30.83-30.72,31.16-30.72
					c0.28,0,43.27,42.72,95.46,94.91l94.86,94.86l-5.06,2.04c-24.33,9.75-53.02,6.99-74.71-7.16c-2.7-1.71-6.06-4.13-7.6-5.34
					c-1.49-1.21-25.32-24.72-52.85-52.25l-50.15-50.04l-11.01,11.18c-9.74,9.86-11.29,11.67-13.05,15.31
					c-3.96,8.15-4.02,15.86-0.11,24.17c3.69,7.76,11.78,13.65,20.65,14.97c7.05,1.1,15.42-1.27,20.7-5.78l2.26-1.93l19.38,19.43
					l19.43,19.43l-3.52,3.14c-10.19,9.19-23.95,16.08-38.15,19.05C2058.08,8389.15,2043.17,8389.98,2038.43,8389.37z"/>
				<path class="st1" d="M2366,8267.76v-85.06h22.57h22.57l0.11,33.2l0.17,33.14l31.27,0.17l31.22,0.11v-33.31v-33.31h22.57h22.57
					v85.06v85.06h-22.57h-22.57v-31.11v-31.11h-31.38h-31.38v31.11v31.11h-22.57H2366V8267.76z"/>
				<path class="st1" d="M2710.97,8292.42l-34.46-50.98v-15.3v-15.36l35.95-0.11l35.9-0.17l0.17-13.87l0.11-13.93h19.54h19.54
					l0.11,13.93l0.17,13.87l8.15,0.17l8.09,0.17v17.01v17.01l-8.09,0.17l-8.15,0.17l-0.17,49.16l-0.11,49.11h-21.14h-21.14
					L2710.97,8292.42z M2748.52,8268.75l-0.17-23.56l-16.13-0.17c-10.07-0.05-16.08,0.06-15.97,0.39
					c0.39,1.16,31.6,46.8,31.99,46.85C2748.46,8292.26,2748.57,8281.69,2748.52,8268.75z"/>
				<path class="st1" d="M2238.55,8306.02l-36.89-36.89l-9.63,9.63l-9.63,9.63l-19.16-19.16c-10.52-10.51-19.1-19.38-19.1-19.65
					c0-0.33,4.24-4.79,9.36-9.91l9.36-9.36l-38.65-38.65l-38.7-38.7l19.43-19.38l19.38-19.43l68.32,68.27
					c37.55,37.55,69.86,70.14,71.74,72.4c17.78,21.31,23.73,49.44,16.02,76.25c-1.05,3.52-4.29,11.84-4.68,11.84
					C2275.55,8342.91,2258.81,8326.34,2238.55,8306.02z"/>
				<path class="st1" d="M2941.31,8319.24v-16.52h-8.81h-8.81v-16.79v-16.79h8.81h8.81v-21.58c0-26.59,0.94-34.85,4.79-44.15
					c4.84-11.62,15.14-20.26,27.86-23.45c10.46-2.59,24.66-2.48,34.3,0.33c7.82,2.26,16.57,6.5,21.09,10.19l1.27,1.05l-8.09,12.77
					c-4.46,7.05-8.31,13.05-8.53,13.27c-0.22,0.28-1.6-0.33-3.08-1.21c-4.35-2.81-8.04-3.91-12.77-3.91
					c-6.5,0.05-10.3,2.26-12.61,7.43c-0.88,1.98-0.99,4.46-1.16,25.76l-0.17,23.51h14.86h14.92v16.79v16.79h-14.86h-14.86v16.52
					v16.52h-21.47h-21.47V8319.24z"/>
				<path class="st1" d="M2594.59,8305.97c-17.23-2.2-32.65-11.67-41.84-25.71c-9.52-14.48-12.99-33.47-9.69-53.18
					c4.51-26.81,22.85-43.49,52.52-47.73c6.99-0.99,23.4-0.83,30,0.28c11.29,1.93,22.3,5.29,30.17,9.25
					c3.63,1.82,4.24,2.31,3.96,3.19c-0.22,0.61-3.19,6.94-6.66,14.09c-4.13,8.59-6.5,12.88-6.99,12.72
					c-0.33-0.17-2.64-1.21-5.06-2.26c-10.07-4.4-19.38-6.11-31.11-5.73c-6,0.22-8.26,0.55-11.89,1.76
					c-5.01,1.6-9.74,4.73-11.95,7.87c-1.54,2.26-3.14,6.28-3.14,7.93c0,0.99,1.27,1.05,40.46,1.05h40.46v6.22
					c0,25.43-6.28,43.33-19.71,56.04c-8.04,7.65-17.67,12.17-29.78,13.98C2608.68,8306.63,2600.2,8306.74,2594.59,8305.97z
					 M2611.82,8273.16c6.72-2.31,12.44-8.86,13.32-15.3l0.33-2.48h-21.36h-21.36l0.39,2.37c1.27,8.04,8.31,14.86,16.85,16.3
					C2603.56,8274.59,2608.73,8274.26,2611.82,8273.16z"/>
				<path class="st1" d="M2891.55,8303.49c-5.78-1.38-10.57-4.35-16.41-10.19c-3.36-3.36-5.4-5.01-5.45-4.46
					c0,0.55-0.33,3.8-0.66,7.27l-0.66,6.33l-20.76,0.17l-20.81,0.11v-60.01v-60.01h21.42h21.47l0.17,31
					c0.22,27.2,0.33,31.33,1.16,34.24c2.97,10.24,8.86,16.19,18.55,18.5c3.63,0.83,12.83,0.88,17.29,0c1.82-0.33,3.36-0.5,3.47-0.44
					c0.33,0.33,5.73,36.28,5.51,36.5c-0.11,0.17-1.93,0.61-4.02,1.05C2907.02,8304.59,2895.9,8304.54,2891.55,8303.49z"/>
				<path class="st1" d="M3122.44,8277.39c0-10.29-0.11-18.72-0.28-18.72c-0.17,0-2.37,0.88-4.9,1.93
					c-15.25,6.28-34.13,2.04-45.14-10.24c-8.04-8.92-11.62-21.25-10.24-35.01c2.04-19.71,13.49-32.7,30.78-34.85
					c9.96-1.27,19.32,1.76,26.54,8.64l3.14,2.97l0.39-4.73l0.39-4.68h7.38h7.38v56.71v56.71h-7.71h-7.71V8277.39z M3112.26,8248.99
					c1.82-0.44,4.84-1.71,6.72-2.75l3.47-1.93v-15.25c0-16.46-0.33-18.99-2.97-24.28c-1.87-3.58-5.73-7.38-9.58-9.25
					c-2.92-1.43-3.63-1.54-9.74-1.54c-6.39,0-6.77,0.06-10.3,1.82c-1.98,0.99-4.51,2.75-5.62,3.96c-7.54,8.37-9.25,25.27-3.63,36.33
					c3.08,6.11,8.15,10.57,14.59,12.77C3098.77,8250.14,3107.74,8250.2,3112.26,8248.99z"/>
				<path class="st1" d="M3188.07,8263.58c-8.09-1.27-14.86-4.79-21.36-11.29c-5.12-5.07-8.2-10.57-10.18-18.11
					c-1.71-6.28-1.71-16.85-0.06-23.56c3.69-14.97,13.71-25.21,28.46-29.07c6.72-1.76,17.4-1.65,24.72,0.28
					c7.27,1.87,13.76,5.12,18.06,9.08l3.41,3.19l-4.07,4.46c-2.26,2.48-4.29,4.51-4.46,4.51c-0.22,0-1.54-0.94-2.92-2.09
					c-9.47-7.82-23.95-9.91-34.3-5.01c-7.32,3.47-13.49,11.45-14.31,18.55l-0.33,2.86h31.27h31.27l-0.33,5.12
					c-1.38,20.92-11.89,36.17-27.75,40.24C3200.84,8263.91,3192.58,8264.29,3188.07,8263.58z M3202.49,8249.87
					c6.28-1.98,11.95-8.31,13.87-15.63c0.44-1.54,0.77-3.36,0.77-4.02v-1.27h-23.18h-23.23l0.33,2.42
					c1.21,8.64,7.65,15.97,16.63,18.83C3191.2,8251.3,3198.31,8251.13,3202.49,8249.87z"/>
				<path class="st1" d="M3352.46,8263.63c-10.02-1.82-17.84-6.83-21.64-13.76c-1.54-2.86-1.65-3.41-1.65-9.08
					c0-5.5,0.11-6.33,1.54-9.19c1.98-4.02,6.66-8.31,11.67-10.68c2.15-1.05,8.2-2.97,13.49-4.35c11.4-2.92,15.69-4.62,18.17-7.16
					c2.75-2.86,3.14-7.54,0.83-11.07c-1.87-2.92-9.14-5.17-16.46-5.17c-7.82,0.05-14.7,2.26-20.54,6.66l-3.36,2.59l-4.51-4.9
					c-2.81-3.03-4.4-5.23-4.18-5.73c0.44-1.16,6.5-5.51,9.91-7.1c9.63-4.57,24.99-5.78,36.34-2.81c4.68,1.21,10.63,4.51,13.71,7.54
					c1.54,1.54,3.36,4.18,4.35,6.33c1.54,3.3,1.76,4.18,1.71,8.64c0,3.85-0.33,5.78-1.27,8.31c-2.59,6.66-9.8,11.84-20.65,14.81
					c-2.7,0.77-7.54,2.04-10.68,2.92c-8.09,2.15-13.21,4.79-14.53,7.49c-1.6,3.08-0.88,6.61,1.76,9.25
					c2.81,2.81,6.94,3.96,14.09,3.91c6.66,0,12.44-1.71,17.51-5.12c1.82-1.16,3.36-2.15,3.41-2.15c0.44,0,7.98,9.85,7.98,10.35
					c0,1.54-9.47,6.66-15.53,8.37C3369.41,8263.85,3356.97,8264.46,3352.46,8263.63z"/>
				<path class="st1" d="M3237.5,8261.15c0-0.11,7.54-17.78,16.74-39.2l16.79-38.98l7.87-0.17l7.87-0.11l16.35,38.37
					c8.97,21.14,16.52,38.87,16.74,39.42c0.33,0.88-0.28,0.94-7.87,0.94h-8.26l-12.06-30.5c-6.61-16.79-12.22-30.33-12.39-30.17
					c-0.17,0.22-5.73,13.93-12.39,30.55l-12,30.11h-8.7C3241.41,8261.43,3237.5,8261.32,3237.5,8261.15z"/>
			</g>
		</g>
		<g>
			<path class="st4" d="M176.55,176.78c0,1.97-0.44,3.54-1.32,4.7s-2.09,1.75-3.63,1.75c-1.48,0-2.64-0.54-3.47-1.61l-0.14,1.37
				h-2.58v-18h2.85v6.54c0.82-0.97,1.93-1.45,3.32-1.45c1.55,0,2.76,0.57,3.64,1.72s1.32,2.75,1.32,4.82V176.78z M173.71,176.53
				c0-1.38-0.24-2.41-0.73-3.09s-1.19-1.03-2.11-1.03c-1.23,0-2.1,0.54-2.6,1.62v5.23c0.51,1.1,1.38,1.65,2.62,1.65
				c0.89,0,1.58-0.33,2.06-1s0.73-1.67,0.75-3.01V176.53z"/>
			<path class="st4" d="M183.37,178.91l2.58-8.6h3.04l-5.04,14.6c-0.77,2.13-2.09,3.2-3.94,3.2c-0.41,0-0.87-0.07-1.37-0.21v-2.21
				l0.54,0.04c0.72,0,1.26-0.13,1.62-0.39s0.65-0.7,0.86-1.32l0.41-1.09l-4.45-12.61h3.07L183.37,178.91z"/>
		</g>
	</g>
</g>
</svg>
